HIERARCHY
ROOT pelvis
{
  OFFSET 0 100 0
  CHANNELS 6 Xposition Yposition Zposition Zrotation Xrotation Yrotation
  JOINT pelvis_right_femur
  {
    OFFSET -10.78128 -3.44521 -0.5502486
    CHANNELS 3 Zrotation Xrotation Yrotation
    JOINT right_femur_tibia
    {
      OFFSET -0.8047443 -44.0398 -0.1307829
      CHANNELS 3 Zrotation Xrotation Yrotation
      JOINT right_tibia_foot
      {
        OFFSET 3.006224 -47.83518 -5
        CHANNELS 3 Zrotation Xrotation Yrotation
        End Site
        {
          OFFSET 0 -5 15
        }
      }
    }
  }
  JOINT pelvis_left_femur
  {
    OFFSET 10.78128 -3.44521 -0.5502486
    CHANNELS 3 Zrotation Xrotation Yrotation
    JOINT left_femur_tibia
    {
      OFFSET 0.8047443 -44.0398 -0.1307829
      CHANNELS 3 Zrotation Xrotation Yrotation
      JOINT left_tibia_foot
      {
        OFFSET -4.370144 -48.10324 -4.275266
        CHANNELS 3 Zrotation Xrotation Yrotation
        End Site
        {
          OFFSET 0 -5 15
        }
      }
    }
  }
  JOINT pelvis_spine1
  {
    OFFSET 0 6.468898 -3.129235
    CHANNELS 3 Zrotation Xrotation Yrotation
    JOINT spine1
    {
      OFFSET 0 23.15396 4.99043
      CHANNELS 3 Zrotation Xrotation Yrotation
      JOINT spine2
      {
        OFFSET 0 20.79997 -5.064912
        CHANNELS 3 Zrotation Xrotation Yrotation
        JOINT neck
        {
          OFFSET 0 14.38658 9.616178
          CHANNELS 3 Zrotation Xrotation Yrotation
          End Site
          {
            OFFSET 0 20 0
          }
        }
      }
      JOINT right_manubrium
      {
        OFFSET -5.722621 16.35077 3.967754
        CHANNELS 3 Zrotation Xrotation Yrotation
        JOINT right_clavicle
        {
          OFFSET -13.16364 1.694482 -4.693211
          CHANNELS 3 Zrotation Xrotation Yrotation
          JOINT right_humerus
          {
            OFFSET -28.5034 -0.3100689 -2.792744
            CHANNELS 3 Zrotation Xrotation Yrotation
            JOINT right_radius
            {
              OFFSET -25.15693 0.02248979 -1.271978
              CHANNELS 3 Zrotation Xrotation Yrotation
              End Site
              {
                OFFSET -15 0 0
              }
            }
          }
        }
      }
      JOINT left_manubrium
      {
        OFFSET 5.722621 16.35077 3.967754
        CHANNELS 3 Zrotation Xrotation Yrotation
        JOINT left_clavicle
        {
          OFFSET 13.16364 1.694482 -4.693211
          CHANNELS 3 Zrotation Xrotation Yrotation
          JOINT left_humerus
          {
            OFFSET 29.39168 -1.063119 -2.237045
            CHANNELS 3 Zrotation Xrotation Yrotation
            JOINT left_radius
            {
              OFFSET 24.59957 -0.9528479 0.9047498
              CHANNELS 3 Zrotation Xrotation Yrotation
              End Site
              {
                OFFSET 15 -0 -0
              }
            }
          }
        }
      }
    }
  }
}
MOTION
Frames: 17
Frame Time: 0.0416666666667
1188.748 95.64873 2390.073 -2.678005 0.6247023 52.36602 5.773286 -31.49815 5.154864 -0 15.86225 -0 -6.790939 -2.824462 -1.996683 -5.28586 13.2332 -15.89588 -0 10.08834 -0 3.407825 -22.74353 18.9615 -2.633997 -1.699718 3.566723 3.834447 10.05126 -9.078589 1.223276 19.70388 7.536963 3.937763 -27.04557 9.335201 4.816421 -18.22692 11.67786 87.4336 32.39907 -22.11521 -0 0 12.40164 -12.01043 9.995724 6.715436 7.674057 -23.02404 -1.793443 -90.44403 21.6599 17.32233 0 0 -19.93509 10.28221 14.47979 1.654569
1192.164 95.00671 2392.389 -5.72592 2.329471 53.04616 8.818969 -36.11932 8.177251 -0 14.18002 -0 -5.370161 -4.530059 -1.928533 -5.326202 13.26241 -16.40417 -0 10.11049 -0 4.690171 -22.86187 19.21331 -2.830901 -1.11406 3.809621 4.547123 9.028725 -9.322727 1.166687 18.29825 7.951844 4.267885 -28.33646 9.807596 6.781405 -17.29933 11.69009 86.04378 38.34104 -21.79844 -0 0 12.65695 -7.953436 10.63641 5.365728 7.805692 -21.78003 -0.3137308 -90.07416 21.91587 17.26275 0 0 -21.77786 11.10167 11.40835 0.9914365
1196.465 93.88843 2395.497 -5.685837 2.913968 53.92172 8.718461 -37.02247 8.490535 -0 10.59402 -0 -1.009621 -3.23956 -4.300216 -5.339273 15.71599 -14.33602 -0 10.56712 -0 1.001152 -22.39211 16.57287 -3.174781 -0.4514356 3.404983 4.602683 8.143535 -9.533232 1.028062 17.5713 8.085491 4.243143 -26.56869 9.151421 7.722469 -15.4684 11.26447 86.0032 40.69474 -22.50324 -0 0 11.19075 -8.741066 12.08862 6.552193 7.731166 -20.70933 -0.42346 -86.99335 23.36378 13.59726 0 0 -26.24653 6.417502 6.54924 6.565901
1201.439 92.98831 2399.138 -5.1942 1.565213 54.70623 8.951322 -34.41599 7.72302 -0 11.58099 -0 -1.340035 -1.61136 -5.018508 -4.114308 16.52966 -12.5319 -0 17.96604 -0 -4.83018 -19.72939 12.01163 -1.656545 -0.5809684 2.655601 4.310319 8.188944 -9.644995 0.8406372 17.56811 7.883759 4.077806 -25.80246 8.415427 7.210019 -14.89039 11.27722 86.81245 37.51854 -23.37822 -0 0 10.50309 -10.56656 12.78379 7.148051 7.221202 -20.75258 -1.073261 -87.1042 23.90243 13.81012 0 0 -25.31621 3.64011 6.631446 9.523123
1206.47 93.1155 2402.776 -5.788519 0.06556123 55.27895 9.953183 -30.0699 7.046498 -0 17.04672 -0 -6.318126 -3.59012 -3.069713 -2.514776 13.63974 -12.88145 -0 30.02208 -0 -7.835241 -14.13908 8.29065 0.5265577 -0.6349508 2.055411 4.114105 7.931215 -9.236984 0.5473401 18.44568 7.797571 3.923527 -26.91427 8.280755 6.574922 -14.95247 11.57418 87.37211 35.5763 -23.12954 -0 0 10.26004 -9.316861 11.97808 6.246581 5.673265 -20.20875 -1.474033 -89.72898 25.25443 17.47739 0 0 -20.84038 3.742808 9.704856 9.216185
1211.482 93.85111 2406.415 -4.64781 -0.7427205 55.34844 8.866813 -23.65148 5.512697 -0 19.69091 -0 -8.478901 -6.24598 -2.029941 -2.062883 9.524974 -12.39544 -0 41.3666 -0 -7.976683 -7.808914 7.17662 1.196018 -0.4459632 2.227148 3.811884 7.897999 -8.555339 0.2572477 19.9047 7.612894 3.631013 -26.56769 7.856432 6.261692 -14.67109 11.82301 87.78656 35.50921 -22.57706 -0 0 8.654506 -9.641535 11.32684 6.759348 4.07103 -19.58285 -2.266635 -89.57187 26.02767 17.86746 0 0 -19.73318 3.899975 10.11977 9.398162
1216.578 94.78343 2410.155 -1.663166 -1.485805 54.81545 7.427879 -17.27922 4.594244 -0 17.25782 -0 -6.747182 -5.881308 -2.437672 -2.297687 5.256497 -9.902211 -0 51.55185 -0 -7.459718 -4.458897 8.730124 0.5937764 -0.239114 3.466963 3.440189 9.313573 -8.154854 0.2680924 20.73312 7.147878 3.491276 -24.60302 6.982049 6.142525 -14.86041 12.33435 87.87497 34.36447 -22.20611 -0 0 7.404905 -13.1612 11.91345 8.515542 3.48176 -20.26186 -3.332196 -87.76952 24.34853 16.05429 0 0 -21.39628 3.683334 8.598968 9.982398
1221.634 95.92371 2413.838 0.6818631 -1.802528 54.0199 6.630692 -11.94804 4.68252 -0 13.55248 -0 -4.678947 -5.054189 -2.827192 -2.524559 -0.3249243 -7.459483 -0 59.25274 -0 -6.932367 -3.790375 10.70988 -0.3189894 -0.002012206 5.181934 3.101244 10.9231 -7.830361 0.4128219 20.82353 6.70702 3.583745 -22.96214 6.244762 6.385998 -15.61905 12.91546 87.02702 33.57044 -21.26689 -0 0 8.022644 -16.17071 12.80219 9.935279 3.458908 -21.14079 -3.757776 -87.28892 22.31911 15.89202 0 0 -22.47254 3.364803 7.219038 10.37398
1226.437 97.01932 2417.29 1.843934 -1.516072 53.24912 5.906425 -6.701495 4.601572 -0 10.45075 -0 -4.188179 -6.006311 -2.358631 -2.400737 -7.520414 -5.985923 -0 61.74523 -0 -6.073854 -4.157085 12.1535 -1.204062 0.334084 6.670915 2.693297 11.58012 -7.185208 0.4809211 21.01305 6.41034 3.647667 -22.07228 5.822697 6.529152 -16.56545 13.24203 85.33005 33.83474 -19.11264 -0 0 9.830005 -17.43406 13.07868 10.7688 3.55507 -21.33149 -3.493846 -88.03104 21.58481 17.3039 0 0 -22.17064 3.162345 6.826322 10.41183
1230.987 97.62304 2420.521 2.636078 -1.262986 52.62578 5.24044 -1.308375 4.404497 -0 8.256733 -0 -4.041166 -7.900901 -1.809556 -1.591011 -14.67018 -4.784463 -0 58.00569 -0 -5.444302 -4.906753 13.58953 -1.792941 0.7468274 7.637504 2.110669 11.57485 -6.28646 0.5516111 21.33568 6.124038 3.543185 -21.22432 5.563427 6.149721 -17.68816 13.29481 83.26615 33.67096 -15.94383 -0 0 12.47317 -18.3899 12.89614 11.60904 3.795005 -20.88117 -3.066723 -89.13032 21.6249 19.0713 0 0 -21.05037 2.634157 6.776654 10.7896
1235.4 97.50501 2423.595 3.131239 -1.298964 52.13425 4.808534 3.759016 4.232935 -0 6.900258 -0 -3.713367 -10.13088 -1.357786 -0.1010809 -20.7798 -3.503896 -0 49.38808 -0 -5.118477 -5.58022 15.10313 -1.905331 1.138415 8.076211 1.449296 11.26186 -5.373992 0.6042268 21.59947 5.900084 3.322428 -20.39006 5.426477 5.304164 -19.0037 13.16845 81.28476 32.76665 -12.38059 -0 0 15.60902 -19.59584 12.44569 12.67467 4.127745 -20.06339 -2.721704 -90.23174 21.81151 20.82286 0 0 -19.54594 1.926582 6.706265 11.46095
1239.84 96.63083 2426.616 3.403326 -1.698757 51.67902 4.605129 8.284296 4.047883 -0 6.455425 -0 -3.246255 -12.55381 -1.002636 1.668188 -25.1969 -2.287502 -0 38.29216 -0 -5.004011 -6.018997 16.70548 -1.582837 1.409658 8.074302 0.7958712 10.7534 -4.562763 0.6934165 21.84009 5.720133 3.008813 -19.57056 5.451854 4.041565 -20.32557 12.82301 79.81858 31.12016 -8.979877 -0 0 18.72823 -20.95202 11.73316 13.74291 4.477922 -19.04596 -2.492549 -91.19963 21.98049 22.26354 0 0 -17.68796 1.296874 6.709334 12.10437
1244.481 95.18162 2429.7 3.464839 -2.249012 51.15462 4.470375 12.03827 3.805559 -0 6.905086 -0 -2.668217 -14.78617 -0.6438707 3.085797 -27.75933 -1.458045 -0 27.69774 -0 -4.988852 -6.234498 18.11182 -1.081672 1.434684 7.882026 0.2498018 10.17103 -3.952287 0.8269934 22.02593 5.58256 2.681655 -18.88369 5.609979 2.675076 -21.41664 12.31392 79.00627 29.18918 -6.280953 -0 0 21.34172 -22.24143 10.91373 14.60002 4.744851 -18.03079 -2.345405 -91.94918 22.08203 23.31782 0 0 -15.6952 0.8433068 6.814816 12.57597
1249.457 93.4709 2432.939 3.409466 -2.663568 50.52861 4.171306 14.98771 3.495642 -0 8.377253 -0 -2.038783 -16.28011 -0.2422833 3.582348 -28.69054 -1.350876 -0 19.89452 -0 -4.988177 -6.373812 19.05146 -0.739968 1.164399 7.74003 -0.1388817 9.597982 -3.546629 1.009103 22.15224 5.464951 2.411969 -18.42615 5.841773 1.538042 -22.08204 11.73516 78.73664 27.46555 -4.530023 -0 0 23.11743 -23.23859 10.15735 15.11225 4.853104 -17.12325 -2.218687 -92.51337 22.19703 24.08168 0 0 -13.69209 0.4965967 7.019364 12.92292
1254.837 91.83679 2436.375 3.4098 -2.772795 49.86598 3.531868 17.20313 3.209927 -0 11.21258 -0 -1.374693 -16.40515 0.1131363 2.965424 -28.356 -2.034569 -0 15.76054 -0 -4.954062 -6.596904 19.43842 -0.7920018 0.6507148 7.770905 -0.3908239 9.13365 -3.28807 1.236803 22.21031 5.348859 2.249972 -18.21153 6.081463 0.8541213 -22.27219 11.20087 78.83035 26.21997 -3.708838 -0 0 23.9849 -23.88766 9.596762 15.30683 4.779586 -16.35256 -2.096568 -92.95836 22.37793 24.71109 0 0 -11.75194 0.1188673 7.221148 13.30723
1260.624 90.57058 2439.998 3.627233 -2.587098 49.2969 2.522043 18.67217 3.085796 -0 15.83129 -0 -0.7253349 -14.6982 0.2560385 1.427288 -27.03684 -3.312297 -0 14.96801 -0 -4.821703 -6.979104 19.37979 -1.283153 0.009881562 7.946023 -0.5662523 8.892993 -3.121001 1.490206 22.19653 5.242917 2.220854 -18.19498 6.284606 0.6890825 -22.06298 10.80855 79.19054 25.51967 -3.676092 -0 0 24.02906 -24.25836 9.291562 15.29785 4.545259 -15.74004 -2.022602 -93.29814 22.5945 25.28768 0 0 -9.974309 -0.3316101 7.303687 13.81515
1266.736 89.87693 2443.758 4.152521 -2.27134 48.96938 1.282365 19.22502 3.203165 -0 22.47995 -0 -0.1866535 -11.12253 0.02691153 -0.6135203 -24.86253 -4.864082 -0 16.48476 -0 -4.525824 -7.52152 19.09958 -2.081588 -0.6099042 8.120172 -0.7285205 8.958692 -3.020606 1.737166 22.14112 5.175462 2.314223 -18.2903 6.441339 0.9518108 -21.58494 10.60837 79.83485 25.26399 -4.263876 -0 0 23.38667 -24.44627 9.220551 15.1812 4.208062 -15.32386 -2.071774 -93.48305 22.77749 25.74704 0 0 -8.492046 -0.7612988 7.238276 14.37764
